# Blender v2.81 (sub 16) OBJ File: ''
# www.blender.org
mtllib test.mtl
o ObjObject
v -0.300000 0.049999 0.242857
v -0.300000 -0.050001 0.042857
v -0.300000 -0.050001 0.242857
v -0.300000 0.049999 0.042857
v -0.100000 0.049999 0.642857
v -0.100000 -0.050001 0.242857
v -0.100000 -0.050001 0.642857
v -0.100000 0.049999 0.242857
v -0.100000 0.049999 0.042857
v -0.100000 -0.050001 -0.657143
v -0.100000 -0.050001 0.042857
v -0.100000 0.049999 -0.657143
v 0.000000 -0.050001 -0.557143
v 0.000000 -0.050001 -0.657143
v 0.000000 0.049999 -0.557143
v 0.000000 0.049999 -0.657143
v 0.100000 -0.050001 0.642857
v 0.100000 -0.050001 0.242857
v 0.100000 0.049999 0.642857
v 0.100000 0.049999 0.242857
v 0.100000 -0.050001 0.042857
v 0.100000 -0.050001 -0.557143
v 0.100000 0.049999 0.042857
v 0.100000 0.049999 -0.557143
v 0.300000 -0.050001 0.242857
v 0.300000 -0.050001 0.042857
v 0.300000 0.049999 0.242857
v 0.300000 0.049999 0.042857
v 0.100000 -0.050001 0.642857
v -0.100000 0.049999 0.642857
v -0.100000 -0.050001 0.642857
v 0.100000 0.049999 0.642857
v -0.100000 -0.050001 0.242857
v -0.300000 0.049999 0.242857
v -0.300000 -0.050001 0.242857
v -0.100000 0.049999 0.242857
v 0.300000 -0.050001 0.242857
v 0.100000 0.049999 0.242857
v 0.100000 -0.050001 0.242857
v 0.300000 0.049999 0.242857
v -0.300000 -0.050001 0.042857
v -0.300000 0.049999 0.042857
v -0.100000 -0.050001 0.042857
v -0.100000 0.049999 0.042857
v 0.100000 -0.050001 0.042857
v 0.100000 0.049999 0.042857
v 0.300000 -0.050001 0.042857
v 0.300000 0.049999 0.042857
v 0.000000 -0.050001 -0.557143
v 0.000000 0.049999 -0.557143
v 0.100000 -0.050001 -0.557143
v 0.100000 0.049999 -0.557143
v -0.100000 -0.050001 -0.657143
v -0.100000 0.049999 -0.657143
v 0.000000 -0.050001 -0.657143
v 0.000000 0.049999 -0.657143
v -0.100000 -0.050001 0.242857
v 0.100000 -0.050001 0.642857
v -0.100000 -0.050001 0.642857
v 0.100000 -0.050001 0.242857
v -0.300000 -0.050001 0.042857
v -0.300000 -0.050001 0.242857
v 0.300000 -0.050001 0.242857
v -0.100000 -0.050001 0.042857
v 0.100000 -0.050001 0.042857
v 0.300000 -0.050001 0.042857
v 0.000000 -0.050001 -0.557143
v 0.100000 -0.050001 -0.557143
v -0.100000 -0.050001 -0.657143
v 0.000000 -0.050001 -0.657143
v -0.100000 0.049999 0.642857
v 0.100000 0.049999 0.642857
v -0.100000 0.049999 0.242857
v 0.100000 0.049999 0.242857
v -0.300000 0.049999 0.242857
v -0.300000 0.049999 0.042857
v 0.300000 0.049999 0.242857
v -0.100000 0.049999 0.042857
v 0.100000 0.049999 0.042857
v 0.300000 0.049999 0.042857
v 0.000000 0.049999 -0.557143
v 0.100000 0.049999 -0.557143
v -0.100000 0.049999 -0.657143
v 0.000000 0.049999 -0.657143
vt 0.853516 0.500000
vt 0.853516 0.500000
vt 0.853516 0.500000
vt 0.853516 0.500000
vt 0.853516 0.500000
vt 0.853516 0.500000
vt 0.853516 0.500000
vt 0.853516 0.500000
vt 0.958984 0.500000
vt 0.958984 0.500000
vt 0.958984 0.500000
vt 0.958984 0.500000
vt 0.958984 0.500000
vt 0.958984 0.500000
vt 0.958984 0.500000
vt 0.958984 0.500000
vt 0.853516 0.500000
vt 0.853516 0.500000
vt 0.853516 0.500000
vt 0.853516 0.500000
vt 0.958984 0.500000
vt 0.958984 0.500000
vt 0.958984 0.500000
vt 0.958984 0.500000
vt 0.853516 0.500000
vt 0.853516 0.500000
vt 0.853516 0.500000
vt 0.853516 0.500000
vt 0.853516 0.500000
vt 0.853516 0.500000
vt 0.853516 0.500000
vt 0.853516 0.500000
vt 0.853516 0.500000
vt 0.853516 0.500000
vt 0.853516 0.500000
vt 0.853516 0.500000
vt 0.853516 0.500000
vt 0.853516 0.500000
vt 0.853516 0.500000
vt 0.853516 0.500000
vt 0.853516 0.500000
vt 0.853516 0.500000
vt 0.853516 0.500000
vt 0.853516 0.500000
vt 0.853516 0.500000
vt 0.853516 0.500000
vt 0.853516 0.500000
vt 0.853516 0.500000
vt 0.958984 0.500000
vt 0.958984 0.500000
vt 0.958984 0.500000
vt 0.958984 0.500000
vt 0.958984 0.500000
vt 0.958984 0.500000
vt 0.958984 0.500000
vt 0.958984 0.500000
vt 0.853516 0.500000
vt 0.853516 0.500000
vt 0.853516 0.500000
vt 0.853516 0.500000
vt 0.853516 0.500000
vt 0.853516 0.500000
vt 0.853516 0.500000
vt 0.853516 0.500000
vt 0.853516 0.500000
vt 0.853516 0.500000
vt 0.958984 0.500000
vt 0.958984 0.500000
vt 0.958984 0.500000
vt 0.958984 0.500000
vt 0.958984 0.500000
vt 0.958984 0.500000
vt 0.853516 0.500000
vt 0.853516 0.500000
vt 0.853516 0.500000
vt 0.853516 0.500000
vt 0.853516 0.500000
vt 0.853516 0.500000
vt 0.853516 0.500000
vt 0.853516 0.500000
vt 0.853516 0.500000
vt 0.853516 0.500000
vt 0.958984 0.500000
vt 0.958984 0.500000
vt 0.958984 0.500000
vt 0.958984 0.500000
vt 0.958984 0.500000
vt 0.958984 0.500000
vn -1.0000 -0.0000 0.0000
vn 1.0000 0.0000 0.0000
vn 0.0000 0.0000 1.0000
vn 0.0000 0.0000 -1.0000
vn 0.0000 -1.0000 -0.0000
vn 0.0000 1.0000 0.0000
usemtl palette
s 1
f 1/1/1 2/2/1 3/3/1
f 4/4/1 2/2/1 1/1/1
f 5/5/1 6/6/1 7/7/1
f 8/8/1 6/6/1 5/5/1
f 9/9/1 10/10/1 11/11/1
f 12/12/1 10/10/1 9/9/1
f 13/13/2 14/14/2 15/15/2
f 15/15/2 14/14/2 16/16/2
f 17/17/2 18/18/2 19/19/2
f 19/19/2 18/18/2 20/20/2
f 21/21/2 22/22/2 23/23/2
f 23/23/2 22/22/2 24/24/2
f 25/25/2 26/26/2 27/27/2
f 27/27/2 26/26/2 28/28/2
f 29/29/3 30/30/3 31/31/3
f 32/32/3 30/30/3 29/29/3
f 33/33/3 34/34/3 35/35/3
f 36/36/3 34/34/3 33/33/3
f 37/37/3 38/38/3 39/39/3
f 40/40/3 38/38/3 37/37/3
f 41/41/4 42/42/4 43/43/4
f 43/43/4 42/42/4 44/44/4
f 45/45/4 46/46/4 47/47/4
f 47/47/4 46/46/4 48/48/4
f 49/49/4 50/50/4 51/51/4
f 51/51/4 50/50/4 52/52/4
f 53/53/4 54/54/4 55/55/4
f 55/55/4 54/54/4 56/56/4
f 57/57/5 58/58/5 59/59/5
f 60/60/5 58/58/5 57/57/5
f 61/61/5 57/57/5 62/62/5
f 61/61/5 63/63/5 60/60/5
f 61/61/5 60/60/5 57/57/5
f 64/64/5 63/63/5 61/61/5
f 65/65/5 63/63/5 64/64/5
f 66/66/5 63/63/5 65/65/5
f 67/67/5 65/68/5 64/69/5
f 68/70/5 65/68/5 67/67/5
f 69/71/5 67/67/5 64/69/5
f 70/72/5 67/67/5 69/71/5
f 71/73/6 72/74/6 73/75/6
f 73/75/6 72/74/6 74/76/6
f 75/77/6 73/75/6 76/78/6
f 74/76/6 77/79/6 76/78/6
f 73/75/6 74/76/6 76/78/6
f 76/78/6 77/79/6 78/80/6
f 78/80/6 77/79/6 79/81/6
f 79/81/6 77/79/6 80/82/6
f 78/83/6 79/84/6 81/85/6
f 81/85/6 79/84/6 82/86/6
f 78/83/6 81/85/6 83/87/6
f 83/87/6 81/85/6 84/88/6
